<svg xmlns="http://www.w3.org/2000/svg" viewBox="0 0 64 64"><defs><style>.cls-1{isolation:isolate;}.cls-2{fill:#db9d53;}.cls-3{fill:#f3dab9;}.cls-4{fill:#aa3f35;}.cls-5{fill:none;stroke:#000;stroke-linecap:round;stroke-linejoin:round;stroke-width:2px;}.cls-6{opacity:0.25;mix-blend-mode:multiply;}.cls-7,.cls-8{mix-blend-mode:overlay;}.cls-8{fill:#fff;}</style></defs><title>Icon Color</title><g class="cls-1"><g id="Layer_1" data-name="Layer 1"><g id="Vector"><path class="cls-2" d="M62.85,46.1a15.24,15.24,0,0,1-10.13,8.35C41.59,57,36.06,43.25,23.42,45.11,18,45.92,15.89,49,10.23,47.93c-.58-.1-7.58-1.48-9.67-6.48a8.62,8.62,0,0,1-.08-5.89,1.13,1.13,0,0,0,.08.24c2.09,5,9.09,6.38,9.67,6.48,5.66,1,7.72-2,13.19-2.82,12.64-1.87,18.17,11.87,29.3,9.33a15.2,15.2,0,0,0,10.13-8.34,13.41,13.41,0,0,0,.88-2.74A14,14,0,0,1,62.85,46.1Z"/><path class="cls-3" d="M63.73,37.71a13.41,13.41,0,0,1-.88,2.74,15.2,15.2,0,0,1-10.13,8.34c-11.13,2.54-16.66-11.2-29.3-9.33-5.47.8-7.53,3.84-13.19,2.82-.58-.1-7.58-1.48-9.67-6.48a1.13,1.13,0,0,1-.08-.24C-2,29.05,5.85,20.44,10.27,16.76,21.65,7.3,35.91,9.31,38,9.64c3.38.53,13.73,2.16,20.43,11.05C59.39,22,65.32,29.88,63.73,37.71Z"/><path class="cls-4" d="M40.9,41.19c3.25,2.15,6.05,4,9.1,4A8.63,8.63,0,0,0,51.86,45a11.28,11.28,0,0,0,7.43-6.16c2.76-6.06-2.37-13.61-4-15.79C49.53,15.42,40.38,14,37.37,13.5a32.88,32.88,0,0,0-4.92-.35c-5.35,0-13.11,1.15-19.68,6.61-5.23,4.36-10,11.15-8.6,14.53,1.07,2.58,5.35,3.89,6.76,4.15a9.11,9.11,0,0,0,1.5.14,10.59,10.59,0,0,0,4.17-1.12,25.44,25.44,0,0,1,6.25-1.87,20.58,20.58,0,0,1,2.91-.22C32.12,35.37,36.79,38.46,40.9,41.19Z"/><circle class="cls-3" cx="47.18" cy="31.29" r="5.23"/></g><g id="Line"><path class="cls-5" d="M62.85,46.1a15.24,15.24,0,0,1-10.13,8.35C41.59,57,36.06,43.25,23.42,45.11,18,45.92,15.89,49,10.23,47.93c-.58-.1-7.58-1.48-9.67-6.48a8.62,8.62,0,0,1-.08-5.89,1.13,1.13,0,0,0,.08.24c2.09,5,9.09,6.38,9.67,6.48,5.66,1,7.72-2,13.19-2.82,12.64-1.87,18.17,11.87,29.3,9.33a15.2,15.2,0,0,0,10.13-8.34,13.41,13.41,0,0,0,.88-2.74A14,14,0,0,1,62.85,46.1Z"/><path class="cls-5" d="M63.73,37.71a13.41,13.41,0,0,1-.88,2.74,15.2,15.2,0,0,1-10.13,8.34c-11.13,2.54-16.66-11.2-29.3-9.33-5.47.8-7.53,3.84-13.19,2.82-.58-.1-7.58-1.48-9.67-6.48a1.13,1.13,0,0,1-.08-.24C-2,29.05,5.85,20.44,10.27,16.76,21.65,7.3,35.91,9.31,38,9.64c3.38.53,13.73,2.16,20.43,11.05C59.39,22,65.32,29.88,63.73,37.71Z"/><path d="M32.45,15.15a29.48,29.48,0,0,1,4.61.33c2.81.44,11.36,1.79,16.62,8.77,1,1.38,6.15,8.57,3.79,13.75a9.34,9.34,0,0,1-6.06,5A6.35,6.35,0,0,1,50,43.2c-2.44,0-5-1.7-8-3.68-4.14-2.74-9.29-6.15-16.25-6.15a21.75,21.75,0,0,0-3.2.24,28,28,0,0,0-6.72,2,8.84,8.84,0,0,1-3.41,1,7.16,7.16,0,0,1-1.15-.11C9.72,36.19,6.61,35,6,33.52c-.77-1.86,2.64-7.73,8-12.22,6.11-5.08,13.38-6.15,18.4-6.15m0-2c-5.35,0-13.11,1.15-19.68,6.61-5.23,4.36-10,11.15-8.6,14.53,1.07,2.58,5.35,3.89,6.76,4.15a9.11,9.11,0,0,0,1.5.14,10.59,10.59,0,0,0,4.17-1.12,25.44,25.44,0,0,1,6.25-1.87,20.58,20.58,0,0,1,2.91-.22c6.36,0,11,3.09,15.14,5.82,3.25,2.15,6.05,4,9.1,4A8.63,8.63,0,0,0,51.86,45a11.28,11.28,0,0,0,7.43-6.16c2.76-6.06-2.37-13.61-4-15.79C49.53,15.42,40.38,14,37.37,13.5a32.88,32.88,0,0,0-4.92-.35Z"/><circle class="cls-5" cx="47.18" cy="31.29" r="5.23"/></g><g id="Shadow" class="cls-6"><path d="M63.73,37.71c1.59-7.83-4.34-15.7-5.33-17-6.7-8.89-17-10.52-20.43-11A39.19,39.19,0,0,0,24.65,10c4.48.87,12.68,3.21,18.32,10.68,1,1.32,6.91,9.19,5.32,17a13.94,13.94,0,0,1-.88,8.39,15.53,15.53,0,0,1-5.24,6.18c3.18,1.85,6.5,3.09,10.55,2.17A15.24,15.24,0,0,0,62.85,46.1,14,14,0,0,0,63.73,37.71Z"/></g><g id="Highligth" class="cls-7"><path class="cls-8" d="M12.86,41.45a8.62,8.62,0,0,1-.08-5.89c-2.46-6.51,5.37-15.12,9.8-18.8a32.68,32.68,0,0,1,15.94-7L38,9.64c-2.06-.33-16.32-2.34-27.7,7.12C5.85,20.44-2,29.05.48,35.56a8.62,8.62,0,0,0,.08,5.89c2.09,5,9.09,6.38,9.67,6.48,3.58.65,5.71-.33,8.18-1.34A10.52,10.52,0,0,1,12.86,41.45Z"/></g></g></g></svg>